# xmcd
#
# Track frame offsets: 
#        150
#        12464
#        33037
#        48293
#        65229
#        76609
#
# Disc length: 1155 seconds
#
# Revision: 3
# Processed by: cddbd v1.5.2PL0 Copyright (c) Steve Scherf et al.
# Submitted via: ExactAudioCopy v0.99pb5
#
DISCID=3f048106
DTITLE=Lambchop - Tools In The Dryer (A-Sides, B-Sides, Live Tracks An
DTITLE=d Remixes) (Merge Records,  MRG 200) (Bonus Disc)
DYEAR=2002
DGENRE=Alternative
TTITLE0=A Moist Towelette
TTITLE1=An Open Fresca
TTITLE2=Masters Of None
TTITLE3=Little Servant (Chill Pill)
TTITLE4=Alumni Lawn
TTITLE5=A Moist Towelette (Acoustic Version)
EXTD=Limited Edition Bonus-Disc.\r\nMRG 200
EXTT0=
EXTT1=
EXTT2=
EXTT3=
EXTT4=
EXTT5=
PLAYORDER=
